<?xml version="1.0" standalone="no"?>
<!DOCTYPE svg PUBLIC "-//W3C//DTD SVG 20010904//EN"
 "http://www.w3.org/TR/2001/REC-SVG-20010904/DTD/svg10.dtd">
<svg version="1.0" xmlns="http://www.w3.org/2000/svg"
 width="304.000000pt" height="304.000000pt" viewBox="0 0 304.000000 304.000000"
 preserveAspectRatio="xMidYMid meet">
<metadata>
Created by potrace 1.11, written by Peter Selinger 2001-2013
</metadata>
<g transform="translate(0.000000,304.000000) scale(0.100000,-0.100000)"
fill="#000000" stroke="none">
<path d="M1790 2052 l-45 -3 2 -522 c1 -287 2 -532 2 -545 1 -22 4 -23 74 -20
l72 3 0 258 c0 222 2 257 15 258 8 0 106 1 218 1 l202 0 0 64 0 64 -182 -1
c-101 0 -199 0 -218 0 l-36 1 1 158 0 157 240 5 240 5 -1 50 c-1 28 -2 55 -3
60 -1 9 -462 15 -581 7z"/>
<path d="M1083 2032 c-18 -2 -33 -8 -33 -14 0 -9 -116 -321 -139 -373 -5 -11
-32 -81 -60 -155 -28 -74 -86 -227 -129 -340 l-78 -205 74 -3 c41 -2 76 -1 78
1 2 2 26 64 52 138 l47 134 249 0 249 0 47 -135 47 -135 78 -3 c87 -3 84 -10
47 83 -11 28 -40 104 -65 170 -163 428 -316 828 -319 830 -5 5 -112 10 -145 7z
m168 -439 c49 -132 89 -243 89 -245 0 -3 -88 -5 -195 -5 -128 0 -195 3 -195
10 0 6 28 85 61 176 34 91 74 202 90 246 16 44 32 87 35 95 7 18 -4 43 115
-277z"/>
</g>
</svg>
